<svg width="283" height="283" viewBox="0 0 283 283" fill="none" xmlns="http://www.w3.org/2000/svg">
<path d="M157.331 157.331C148.544 166.118 134.298 166.118 125.511 157.331C116.725 148.545 116.725 134.298 125.511 125.512C134.298 116.725 148.544 116.725 157.331 125.512C166.118 134.298 166.118 148.545 157.331 157.331Z" fill="#A71A27" stroke="#A71A27" stroke-width="5"/>
<path d="M210.364 210.364C172.288 248.44 110.555 248.44 72.4784 210.364C34.4023 172.288 34.4023 110.555 72.4784 72.4784C110.555 34.4023 172.288 34.4023 210.364 72.4784C248.44 110.555 248.44 172.288 210.364 210.364Z" stroke="#A71A27" stroke-width="5"/>
<path d="M212.132 212.132C173.08 251.185 109.763 251.185 70.7106 212.132C31.6582 173.08 31.6582 109.763 70.7106 70.7107C70.7106 70.7107 102.369 102.369 141.421 141.421C180.474 180.474 212.132 212.132 212.132 212.132Z" fill="#A71A27"/>
</svg>
